<svg width="75" height="50" viewBox="0 0 75 50" fill="none" xmlns="http://www.w3.org/2000/svg">
<mask id="path-1-inside-1_391_824" fill="white">
<path fill-rule="evenodd" clip-rule="evenodd" d="M12.5 12.5001L0 25.0001L12.5 37.5001L25 50.0001L37.5 37.5001L50 50.0001L62.5 37.5001L75 25.0001L62.5 12.5001L50 5.384e-05L37.5 12.5001L25 5.384e-05L12.5 12.5001ZM50 25.0001L37.5 37.5001L25 25.0001L37.5 12.5001L50 25.0001Z"/>
</mask>
<path d="M0 25.0001L-0.707107 24.2929L-1.41421 25.0001L-0.707107 25.7072L0 25.0001ZM12.5 12.5001L11.7929 11.7929L12.5 12.5001ZM25 50.0001L24.2929 50.7072L25 51.4143L25.7071 50.7072L25 50.0001ZM50 50.0001L49.2929 50.7072L50 51.4143L50.7071 50.7072L50 50.0001ZM75 25.0001L75.7071 25.7072L76.4142 25.0001L75.7071 24.2929L75 25.0001ZM62.5 12.5001L63.2071 11.7929L62.5 12.5001ZM50 5.384e-05L50.7071 -0.707053L50 -1.41416L49.2929 -0.707053L50 5.384e-05ZM25 5.384e-05L25.7071 -0.707053L25 -1.41416L24.2929 -0.707053L25 5.384e-05ZM50 25.0001L50.7071 25.7072L51.4142 25.0001L50.7071 24.2929L50 25.0001ZM25 25.0001L24.2929 24.2929L23.5858 25.0001L24.2929 25.7072L25 25.0001ZM0.707107 25.7072L13.2071 13.2072L11.7929 11.7929L-0.707107 24.2929L0.707107 25.7072ZM13.2071 36.7929L0.707107 24.2929L-0.707107 25.7072L11.7929 38.2072L13.2071 36.7929ZM25.7071 49.2929L13.2071 36.7929L11.7929 38.2072L24.2929 50.7072L25.7071 49.2929ZM36.7929 36.7929L24.2929 49.2929L25.7071 50.7072L38.2071 38.2072L36.7929 36.7929ZM50.7071 49.2929L38.2071 36.7929L36.7929 38.2072L49.2929 50.7072L50.7071 49.2929ZM61.7929 36.7929L49.2929 49.2929L50.7071 50.7072L63.2071 38.2072L61.7929 36.7929ZM74.2929 24.2929L61.7929 36.7929L63.2071 38.2072L75.7071 25.7072L74.2929 24.2929ZM61.7929 13.2072L74.2929 25.7072L75.7071 24.2929L63.2071 11.7929L61.7929 13.2072ZM49.2929 0.707161L61.7929 13.2072L63.2071 11.7929L50.7071 -0.707053L49.2929 0.707161ZM38.2071 13.2072L50.7071 0.707161L49.2929 -0.707053L36.7929 11.7929L38.2071 13.2072ZM24.2929 0.707161L36.7929 13.2072L38.2071 11.7929L25.7071 -0.707053L24.2929 0.707161ZM13.2071 13.2072L25.7071 0.707161L24.2929 -0.707053L11.7929 11.7929L13.2071 13.2072ZM38.2071 38.2072L50.7071 25.7072L49.2929 24.2929L36.7929 36.7929L38.2071 38.2072ZM24.2929 25.7072L36.7929 38.2072L38.2071 36.7929L25.7071 24.2929L24.2929 25.7072ZM36.7929 11.7929L24.2929 24.2929L25.7071 25.7072L38.2071 13.2072L36.7929 11.7929ZM50.7071 24.2929L38.2071 11.7929L36.7929 13.2072L49.2929 25.7072L50.7071 24.2929Z" fill="url(#paint0_linear_391_824)" mask="url(#path-1-inside-1_391_824)"/>
<defs>
<linearGradient id="paint0_linear_391_824" x1="-0.795485" y1="24.8749" x2="73.8294" y2="24.8749" gradientUnits="userSpaceOnUse">
<stop stop-color="#8F19D7"/>
<stop offset="1" stop-color="#FF5555"/>
</linearGradient>
</defs>
</svg>
